<mxfile host="Electron" agent="Mozilla/5.0 (Windows NT 10.0; Win64; x64) AppleWebKit/537.36 (KHTML, like Gecko) draw.io/24.7.17 Chrome/128.0.6613.36 Electron/32.0.1 Safari/537.36" version="24.7.17">
  <diagram name="Flowchart Pendaftaran Lari Marathon" id="uA-Y98TINSO9sgiE6It7">
    <mxGraphModel dx="5050" dy="2484" grid="1" gridSize="10" guides="1" tooltips="1" connect="1" arrows="1" fold="1" page="1" pageScale="1" pageWidth="850" pageHeight="1100" math="0" shadow="0">
      <root>
        <mxCell id="0" />
        <mxCell id="1" parent="0" />
        <mxCell id="w4_4VS9lS9OvYf16ls5K-1" value="Mulai" style="ellipse;whiteSpace=wrap;html=1;" parent="1" vertex="1">
          <mxGeometry x="50" y="60" width="120" height="60" as="geometry" />
        </mxCell>
        <mxCell id="w4_4VS9lS9OvYf16ls5K-3" style="entryX=0.5;entryY=0;entryDx=0;entryDy=0;exitX=0.5;exitY=1;exitDx=0;exitDy=0;" parent="1" source="w4_4VS9lS9OvYf16ls5K-1" target="9KyXtA8kVbvXgJRXgj30-2" edge="1">
          <mxGeometry relative="1" as="geometry">
            <mxPoint x="110" y="140" as="targetPoint" />
          </mxGeometry>
        </mxCell>
        <mxCell id="w4_4VS9lS9OvYf16ls5K-4" value="Pilihan Menu Utama&lt;div&gt;1. Register&lt;/div&gt;&lt;div&gt;2. Login&lt;/div&gt;&lt;div&gt;3. Keluar&lt;/div&gt;" style="rhombus;whiteSpace=wrap;html=1;" parent="1" vertex="1">
          <mxGeometry x="10" y="220" width="200" height="120" as="geometry" />
        </mxCell>
        <mxCell id="w4_4VS9lS9OvYf16ls5K-5" style="entryX=0.5;entryY=0;entryDx=0;entryDy=0;exitX=0.5;exitY=1;exitDx=0;exitDy=0;" parent="1" source="9KyXtA8kVbvXgJRXgj30-2" target="w4_4VS9lS9OvYf16ls5K-4" edge="1">
          <mxGeometry relative="1" as="geometry">
            <mxPoint x="110" y="200" as="sourcePoint" />
          </mxGeometry>
        </mxCell>
        <mxCell id="CkKso94nkkBatAv6mMkU-24" style="edgeStyle=orthogonalEdgeStyle;rounded=0;orthogonalLoop=1;jettySize=auto;html=1;exitX=1;exitY=0.5;exitDx=0;exitDy=0;entryX=0;entryY=0.5;entryDx=0;entryDy=0;" edge="1" parent="1" source="w4_4VS9lS9OvYf16ls5K-6" target="w4_4VS9lS9OvYf16ls5K-26">
          <mxGeometry relative="1" as="geometry" />
        </mxCell>
        <mxCell id="w4_4VS9lS9OvYf16ls5K-6" value="Registrasi Pengguna" style="rounded=1;whiteSpace=wrap;html=1;" parent="1" vertex="1">
          <mxGeometry x="290" y="460" width="180" height="60" as="geometry" />
        </mxCell>
        <mxCell id="w4_4VS9lS9OvYf16ls5K-7" value="Login" style="rounded=1;whiteSpace=wrap;html=1;" parent="1" vertex="1">
          <mxGeometry x="290" y="690" width="180" height="60" as="geometry" />
        </mxCell>
        <mxCell id="CkKso94nkkBatAv6mMkU-175" style="edgeStyle=orthogonalEdgeStyle;rounded=0;orthogonalLoop=1;jettySize=auto;html=1;exitX=1;exitY=0.5;exitDx=0;exitDy=0;" edge="1" parent="1" source="w4_4VS9lS9OvYf16ls5K-8" target="w4_4VS9lS9OvYf16ls5K-22">
          <mxGeometry relative="1" as="geometry" />
        </mxCell>
        <mxCell id="w4_4VS9lS9OvYf16ls5K-8" value="Keluar" style="rounded=1;whiteSpace=wrap;html=1;" parent="1" vertex="1">
          <mxGeometry x="230" y="956.25" width="180" height="60" as="geometry" />
        </mxCell>
        <mxCell id="w4_4VS9lS9OvYf16ls5K-10" style="entryX=0.5;entryY=0;entryDx=0;entryDy=0;" parent="1" source="CkKso94nkkBatAv6mMkU-7" target="CkKso94nkkBatAv6mMkU-9" edge="1">
          <mxGeometry relative="1" as="geometry" />
        </mxCell>
        <mxCell id="w4_4VS9lS9OvYf16ls5K-32" style="edgeStyle=orthogonalEdgeStyle;rounded=0;orthogonalLoop=1;jettySize=auto;html=1;exitX=0.5;exitY=1;exitDx=0;exitDy=0;entryX=0.5;entryY=0;entryDx=0;entryDy=0;" parent="1" source="w4_4VS9lS9OvYf16ls5K-13" target="9KyXtA8kVbvXgJRXgj30-8" edge="1">
          <mxGeometry relative="1" as="geometry">
            <mxPoint x="-222" y="740" as="targetPoint" />
          </mxGeometry>
        </mxCell>
        <mxCell id="CkKso94nkkBatAv6mMkU-142" value="Else" style="edgeLabel;html=1;align=center;verticalAlign=middle;resizable=0;points=[];" vertex="1" connectable="0" parent="w4_4VS9lS9OvYf16ls5K-32">
          <mxGeometry x="-0.3067" y="-1" relative="1" as="geometry">
            <mxPoint as="offset" />
          </mxGeometry>
        </mxCell>
        <mxCell id="9KyXtA8kVbvXgJRXgj30-27" value="" style="edgeStyle=orthogonalEdgeStyle;rounded=0;orthogonalLoop=1;jettySize=auto;html=1;" parent="1" source="w4_4VS9lS9OvYf16ls5K-13" target="9KyXtA8kVbvXgJRXgj30-6" edge="1">
          <mxGeometry relative="1" as="geometry" />
        </mxCell>
        <mxCell id="9KyXtA8kVbvXgJRXgj30-36" value="True" style="edgeLabel;html=1;align=center;verticalAlign=middle;resizable=0;points=[];" parent="9KyXtA8kVbvXgJRXgj30-27" vertex="1" connectable="0">
          <mxGeometry x="-0.2041" y="2" relative="1" as="geometry">
            <mxPoint x="1" as="offset" />
          </mxGeometry>
        </mxCell>
        <mxCell id="w4_4VS9lS9OvYf16ls5K-13" value="nama pengguna&amp;nbsp;&lt;div&gt;sudah digunakan&lt;/div&gt;" style="rhombus;whiteSpace=wrap;html=1;" parent="1" vertex="1">
          <mxGeometry x="760" y="437.5" width="157.5" height="105" as="geometry" />
        </mxCell>
        <mxCell id="9KyXtA8kVbvXgJRXgj30-11" value="F" style="edgeStyle=orthogonalEdgeStyle;rounded=0;orthogonalLoop=1;jettySize=auto;html=1;exitX=0.5;exitY=1;exitDx=0;exitDy=0;entryX=0.5;entryY=0;entryDx=0;entryDy=0;" parent="1" source="w4_4VS9lS9OvYf16ls5K-18" target="9KyXtA8kVbvXgJRXgj30-13" edge="1">
          <mxGeometry relative="1" as="geometry">
            <mxPoint x="-50" y="495" as="targetPoint" />
          </mxGeometry>
        </mxCell>
        <mxCell id="9KyXtA8kVbvXgJRXgj30-12" value="False" style="edgeLabel;html=1;align=center;verticalAlign=middle;resizable=0;points=[];" parent="9KyXtA8kVbvXgJRXgj30-11" vertex="1" connectable="0">
          <mxGeometry x="-0.2112" y="-1" relative="1" as="geometry">
            <mxPoint as="offset" />
          </mxGeometry>
        </mxCell>
        <mxCell id="CkKso94nkkBatAv6mMkU-35" style="edgeStyle=orthogonalEdgeStyle;rounded=0;orthogonalLoop=1;jettySize=auto;html=1;exitX=1;exitY=0.5;exitDx=0;exitDy=0;entryX=0;entryY=0.5;entryDx=0;entryDy=0;" edge="1" parent="1" source="w4_4VS9lS9OvYf16ls5K-18" target="CkKso94nkkBatAv6mMkU-34">
          <mxGeometry relative="1" as="geometry" />
        </mxCell>
        <mxCell id="CkKso94nkkBatAv6mMkU-36" value="True" style="edgeLabel;html=1;align=center;verticalAlign=middle;resizable=0;points=[];" vertex="1" connectable="0" parent="CkKso94nkkBatAv6mMkU-35">
          <mxGeometry x="-0.5551" y="-2" relative="1" as="geometry">
            <mxPoint as="offset" />
          </mxGeometry>
        </mxCell>
        <mxCell id="w4_4VS9lS9OvYf16ls5K-18" value="terdapat akun&amp;nbsp;&lt;div&gt;pengguna/admin&amp;nbsp;&lt;/div&gt;&lt;div&gt;yang telah registrasi&lt;/div&gt;" style="rhombus;whiteSpace=wrap;html=1;" parent="1" vertex="1">
          <mxGeometry x="510" y="665" width="220" height="110" as="geometry" />
        </mxCell>
        <mxCell id="CkKso94nkkBatAv6mMkU-43" style="edgeStyle=orthogonalEdgeStyle;rounded=0;orthogonalLoop=1;jettySize=auto;html=1;exitX=1;exitY=0.5;exitDx=0;exitDy=0;entryX=0;entryY=0.5;entryDx=0;entryDy=0;" edge="1" parent="1" source="w4_4VS9lS9OvYf16ls5K-19" target="9KyXtA8kVbvXgJRXgj30-19">
          <mxGeometry relative="1" as="geometry" />
        </mxCell>
        <mxCell id="w4_4VS9lS9OvYf16ls5K-19" value="Login Berhasil" style="rounded=1;whiteSpace=wrap;html=1;" parent="1" vertex="1">
          <mxGeometry x="1155" y="690" width="120" height="60" as="geometry" />
        </mxCell>
        <mxCell id="w4_4VS9lS9OvYf16ls5K-20" parent="1" source="w4_4VS9lS9OvYf16ls5K-7" target="w4_4VS9lS9OvYf16ls5K-18" edge="1">
          <mxGeometry relative="1" as="geometry" />
        </mxCell>
        <mxCell id="w4_4VS9lS9OvYf16ls5K-22" value="Selesai" style="ellipse;whiteSpace=wrap;html=1;" parent="1" vertex="1">
          <mxGeometry x="50" y="2010" width="120" height="60" as="geometry" />
        </mxCell>
        <mxCell id="CkKso94nkkBatAv6mMkU-26" style="edgeStyle=orthogonalEdgeStyle;rounded=0;orthogonalLoop=1;jettySize=auto;html=1;exitX=1;exitY=0.5;exitDx=0;exitDy=0;entryX=0;entryY=0.5;entryDx=0;entryDy=0;" edge="1" parent="1" source="w4_4VS9lS9OvYf16ls5K-26" target="w4_4VS9lS9OvYf16ls5K-13">
          <mxGeometry relative="1" as="geometry" />
        </mxCell>
        <mxCell id="w4_4VS9lS9OvYf16ls5K-26" value="Input nama pengguna, pasword, dan role" style="shape=parallelogram;perimeter=parallelogramPerimeter;whiteSpace=wrap;html=1;fixedSize=1;" parent="1" vertex="1">
          <mxGeometry x="510" y="445" width="160" height="90" as="geometry" />
        </mxCell>
        <mxCell id="9KyXtA8kVbvXgJRXgj30-2" value="Tampilkan Menu Utama" style="rounded=0;whiteSpace=wrap;html=1;" parent="1" vertex="1">
          <mxGeometry x="50" y="140" width="120" height="60" as="geometry" />
        </mxCell>
        <mxCell id="9KyXtA8kVbvXgJRXgj30-6" value="&lt;div&gt;output&lt;/div&gt;nama pengguna telah digunakan, silahkan gunakan nama lainnya" style="shape=parallelogram;perimeter=parallelogramPerimeter;whiteSpace=wrap;html=1;fixedSize=1;" parent="1" vertex="1">
          <mxGeometry x="1010" y="450" width="220" height="80" as="geometry" />
        </mxCell>
        <mxCell id="CkKso94nkkBatAv6mMkU-27" style="edgeStyle=orthogonalEdgeStyle;rounded=0;orthogonalLoop=1;jettySize=auto;html=1;exitX=1;exitY=0.5;exitDx=0;exitDy=0;entryX=1;entryY=0.5;entryDx=0;entryDy=0;" edge="1" parent="1" source="9KyXtA8kVbvXgJRXgj30-8" target="9KyXtA8kVbvXgJRXgj30-2">
          <mxGeometry relative="1" as="geometry">
            <Array as="points">
              <mxPoint x="1290" y="605" />
              <mxPoint x="1290" y="170" />
            </Array>
          </mxGeometry>
        </mxCell>
        <mxCell id="9KyXtA8kVbvXgJRXgj30-8" value="Registrasi Berhasil" style="rounded=1;whiteSpace=wrap;html=1;" parent="1" vertex="1">
          <mxGeometry x="778.75" y="580" width="120" height="60" as="geometry" />
        </mxCell>
        <mxCell id="CkKso94nkkBatAv6mMkU-182" value="" style="edgeStyle=orthogonalEdgeStyle;rounded=0;orthogonalLoop=1;jettySize=auto;html=1;" edge="1" parent="1" source="9KyXtA8kVbvXgJRXgj30-13" target="CkKso94nkkBatAv6mMkU-181">
          <mxGeometry relative="1" as="geometry" />
        </mxCell>
        <mxCell id="9KyXtA8kVbvXgJRXgj30-13" value="&lt;div&gt;Output&lt;/div&gt;Lakukan registrasi terlebih dahulu" style="shape=parallelogram;perimeter=parallelogramPerimeter;whiteSpace=wrap;html=1;fixedSize=1;" parent="1" vertex="1">
          <mxGeometry x="555" y="820" width="130" height="70" as="geometry" />
        </mxCell>
        <mxCell id="9KyXtA8kVbvXgJRXgj30-25" style="edgeStyle=orthogonalEdgeStyle;rounded=0;orthogonalLoop=1;jettySize=auto;html=1;exitX=0.5;exitY=1;exitDx=0;exitDy=0;entryX=0.5;entryY=0;entryDx=0;entryDy=0;" parent="1" source="9KyXtA8kVbvXgJRXgj30-19" target="9KyXtA8kVbvXgJRXgj30-23" edge="1">
          <mxGeometry relative="1" as="geometry" />
        </mxCell>
        <mxCell id="CkKso94nkkBatAv6mMkU-191" value="Admin" style="edgeLabel;html=1;align=center;verticalAlign=middle;resizable=0;points=[];" vertex="1" connectable="0" parent="9KyXtA8kVbvXgJRXgj30-25">
          <mxGeometry x="-0.0388" relative="1" as="geometry">
            <mxPoint as="offset" />
          </mxGeometry>
        </mxCell>
        <mxCell id="CkKso94nkkBatAv6mMkU-45" style="edgeStyle=orthogonalEdgeStyle;rounded=0;orthogonalLoop=1;jettySize=auto;html=1;exitX=1;exitY=0.5;exitDx=0;exitDy=0;entryX=0;entryY=0.5;entryDx=0;entryDy=0;" edge="1" parent="1" source="9KyXtA8kVbvXgJRXgj30-19" target="9KyXtA8kVbvXgJRXgj30-22">
          <mxGeometry relative="1" as="geometry" />
        </mxCell>
        <mxCell id="CkKso94nkkBatAv6mMkU-189" value="Pengguna" style="edgeLabel;html=1;align=center;verticalAlign=middle;resizable=0;points=[];" vertex="1" connectable="0" parent="CkKso94nkkBatAv6mMkU-45">
          <mxGeometry x="-0.3471" y="1" relative="1" as="geometry">
            <mxPoint as="offset" />
          </mxGeometry>
        </mxCell>
        <mxCell id="9KyXtA8kVbvXgJRXgj30-19" value="akun pengguna/admin" style="rhombus;whiteSpace=wrap;html=1;" parent="1" vertex="1">
          <mxGeometry x="1320" y="656.25" width="120" height="127.5" as="geometry" />
        </mxCell>
        <mxCell id="CkKso94nkkBatAv6mMkU-59" style="edgeStyle=orthogonalEdgeStyle;rounded=0;orthogonalLoop=1;jettySize=auto;html=1;exitX=1;exitY=0.5;exitDx=0;exitDy=0;entryX=0;entryY=0.5;entryDx=0;entryDy=0;" edge="1" parent="1" source="9KyXtA8kVbvXgJRXgj30-22" target="9KyXtA8kVbvXgJRXgj30-32">
          <mxGeometry relative="1" as="geometry" />
        </mxCell>
        <mxCell id="9KyXtA8kVbvXgJRXgj30-22" value="tampilkan menu pengguna" style="rounded=1;whiteSpace=wrap;html=1;" parent="1" vertex="1">
          <mxGeometry x="1540" y="690" width="120" height="60" as="geometry" />
        </mxCell>
        <mxCell id="CkKso94nkkBatAv6mMkU-44" style="edgeStyle=orthogonalEdgeStyle;rounded=0;orthogonalLoop=1;jettySize=auto;html=1;exitX=0.5;exitY=1;exitDx=0;exitDy=0;entryX=0.5;entryY=0;entryDx=0;entryDy=0;" edge="1" parent="1" source="9KyXtA8kVbvXgJRXgj30-23" target="9KyXtA8kVbvXgJRXgj30-93">
          <mxGeometry relative="1" as="geometry" />
        </mxCell>
        <mxCell id="9KyXtA8kVbvXgJRXgj30-23" value="tampilkan menu admin" style="rounded=1;whiteSpace=wrap;html=1;" parent="1" vertex="1">
          <mxGeometry x="1320" y="850" width="120" height="60" as="geometry" />
        </mxCell>
        <mxCell id="CkKso94nkkBatAv6mMkU-62" value="" style="edgeStyle=orthogonalEdgeStyle;rounded=0;orthogonalLoop=1;jettySize=auto;html=1;" edge="1" parent="1" source="9KyXtA8kVbvXgJRXgj30-32" target="CkKso94nkkBatAv6mMkU-61">
          <mxGeometry relative="1" as="geometry" />
        </mxCell>
        <mxCell id="9KyXtA8kVbvXgJRXgj30-32" value="Menu Pengguna&lt;div&gt;1. Daftar Marathon&lt;/div&gt;&lt;div&gt;2. Lihat Pendaftaran&lt;/div&gt;&lt;div&gt;3. edit pendaftaran&lt;/div&gt;&lt;div&gt;4. batalkan pendaftaran&lt;/div&gt;&lt;div&gt;5. keluar&amp;nbsp;&lt;/div&gt;" style="rhombus;whiteSpace=wrap;html=1;" parent="1" vertex="1">
          <mxGeometry x="1770" y="635" width="210" height="170" as="geometry" />
        </mxCell>
        <mxCell id="9KyXtA8kVbvXgJRXgj30-59" style="edgeStyle=orthogonalEdgeStyle;rounded=0;orthogonalLoop=1;jettySize=auto;html=1;exitX=0.5;exitY=1;exitDx=0;exitDy=0;entryX=0.5;entryY=0;entryDx=0;entryDy=0;" parent="1" source="9KyXtA8kVbvXgJRXgj30-39" edge="1">
          <mxGeometry relative="1" as="geometry">
            <mxPoint x="-670" y="1065" as="targetPoint" />
          </mxGeometry>
        </mxCell>
        <mxCell id="9KyXtA8kVbvXgJRXgj30-81" style="edgeStyle=orthogonalEdgeStyle;rounded=0;orthogonalLoop=1;jettySize=auto;html=1;exitX=0.5;exitY=1;exitDx=0;exitDy=0;entryX=0.5;entryY=0;entryDx=0;entryDy=0;" parent="1" target="9KyXtA8kVbvXgJRXgj30-74" edge="1">
          <mxGeometry relative="1" as="geometry">
            <mxPoint x="-425" y="1050" as="sourcePoint" />
          </mxGeometry>
        </mxCell>
        <mxCell id="9KyXtA8kVbvXgJRXgj30-83" style="edgeStyle=orthogonalEdgeStyle;rounded=0;orthogonalLoop=1;jettySize=auto;html=1;exitX=0.5;exitY=1;exitDx=0;exitDy=0;entryX=0.5;entryY=0;entryDx=0;entryDy=0;" parent="1" target="9KyXtA8kVbvXgJRXgj30-82" edge="1">
          <mxGeometry relative="1" as="geometry">
            <mxPoint x="-170" y="1050" as="sourcePoint" />
          </mxGeometry>
        </mxCell>
        <mxCell id="9KyXtA8kVbvXgJRXgj30-54" style="edgeStyle=orthogonalEdgeStyle;rounded=0;orthogonalLoop=1;jettySize=auto;html=1;exitX=0.5;exitY=1;exitDx=0;exitDy=0;entryX=0.5;entryY=0;entryDx=0;entryDy=0;" parent="1" target="9KyXtA8kVbvXgJRXgj30-53" edge="1">
          <mxGeometry relative="1" as="geometry">
            <mxPoint x="-955" y="1160" as="sourcePoint" />
          </mxGeometry>
        </mxCell>
        <mxCell id="9KyXtA8kVbvXgJRXgj30-52" style="edgeStyle=orthogonalEdgeStyle;rounded=0;orthogonalLoop=1;jettySize=auto;html=1;exitX=0.5;exitY=1;exitDx=0;exitDy=0;entryX=0.623;entryY=-0.024;entryDx=0;entryDy=0;entryPerimeter=0;" parent="1" target="9KyXtA8kVbvXgJRXgj30-49" edge="1">
          <mxGeometry relative="1" as="geometry">
            <mxPoint x="-940" y="1050" as="sourcePoint" />
          </mxGeometry>
        </mxCell>
        <mxCell id="9KyXtA8kVbvXgJRXgj30-63" style="edgeStyle=orthogonalEdgeStyle;rounded=0;orthogonalLoop=1;jettySize=auto;html=1;exitX=0.5;exitY=1;exitDx=0;exitDy=0;entryX=0.5;entryY=0;entryDx=0;entryDy=0;" parent="1" source="9KyXtA8kVbvXgJRXgj30-58" edge="1">
          <mxGeometry relative="1" as="geometry">
            <mxPoint x="-670" y="1190" as="targetPoint" />
          </mxGeometry>
        </mxCell>
        <mxCell id="9KyXtA8kVbvXgJRXgj30-64" value="True" style="edgeLabel;html=1;align=center;verticalAlign=middle;resizable=0;points=[];" parent="9KyXtA8kVbvXgJRXgj30-63" vertex="1" connectable="0">
          <mxGeometry x="-0.187" y="-3" relative="1" as="geometry">
            <mxPoint as="offset" />
          </mxGeometry>
        </mxCell>
        <mxCell id="9KyXtA8kVbvXgJRXgj30-72" style="edgeStyle=orthogonalEdgeStyle;rounded=0;orthogonalLoop=1;jettySize=auto;html=1;exitX=0;exitY=0.5;exitDx=0;exitDy=0;" parent="1" target="9KyXtA8kVbvXgJRXgj30-75" edge="1">
          <mxGeometry relative="1" as="geometry">
            <mxPoint x="-465" y="1110" as="sourcePoint" />
          </mxGeometry>
        </mxCell>
        <mxCell id="9KyXtA8kVbvXgJRXgj30-73" value="False" style="edgeLabel;html=1;align=center;verticalAlign=middle;resizable=0;points=[];" parent="9KyXtA8kVbvXgJRXgj30-72" vertex="1" connectable="0">
          <mxGeometry x="0.2036" relative="1" as="geometry">
            <mxPoint as="offset" />
          </mxGeometry>
        </mxCell>
        <mxCell id="9KyXtA8kVbvXgJRXgj30-78" style="edgeStyle=orthogonalEdgeStyle;rounded=0;orthogonalLoop=1;jettySize=auto;html=1;exitX=0.5;exitY=1;exitDx=0;exitDy=0;entryX=0.5;entryY=0;entryDx=0;entryDy=0;" parent="1" target="9KyXtA8kVbvXgJRXgj30-77" edge="1">
          <mxGeometry relative="1" as="geometry">
            <mxPoint x="-425" y="1150" as="sourcePoint" />
          </mxGeometry>
        </mxCell>
        <mxCell id="9KyXtA8kVbvXgJRXgj30-79" value="True" style="edgeLabel;html=1;align=center;verticalAlign=middle;resizable=0;points=[];" parent="9KyXtA8kVbvXgJRXgj30-78" vertex="1" connectable="0">
          <mxGeometry x="-0.6421" y="-3" relative="1" as="geometry">
            <mxPoint x="3" y="11" as="offset" />
          </mxGeometry>
        </mxCell>
        <mxCell id="9KyXtA8kVbvXgJRXgj30-85" style="edgeStyle=orthogonalEdgeStyle;rounded=0;orthogonalLoop=1;jettySize=auto;html=1;exitX=0;exitY=0.5;exitDx=0;exitDy=0;entryX=1;entryY=0.5;entryDx=0;entryDy=0;" parent="1" target="9KyXtA8kVbvXgJRXgj30-84" edge="1">
          <mxGeometry relative="1" as="geometry">
            <mxPoint x="-210" y="1115" as="sourcePoint" />
          </mxGeometry>
        </mxCell>
        <mxCell id="9KyXtA8kVbvXgJRXgj30-86" value="False" style="edgeLabel;html=1;align=center;verticalAlign=middle;resizable=0;points=[];" parent="9KyXtA8kVbvXgJRXgj30-85" vertex="1" connectable="0">
          <mxGeometry x="-0.4206" y="3" relative="1" as="geometry">
            <mxPoint as="offset" />
          </mxGeometry>
        </mxCell>
        <mxCell id="9KyXtA8kVbvXgJRXgj30-91" style="edgeStyle=orthogonalEdgeStyle;rounded=0;orthogonalLoop=1;jettySize=auto;html=1;exitX=0.5;exitY=1;exitDx=0;exitDy=0;entryX=0.5;entryY=0;entryDx=0;entryDy=0;" parent="1" target="9KyXtA8kVbvXgJRXgj30-89" edge="1">
          <mxGeometry relative="1" as="geometry">
            <mxPoint x="-170" y="1155" as="sourcePoint" />
          </mxGeometry>
        </mxCell>
        <mxCell id="CkKso94nkkBatAv6mMkU-60" style="edgeStyle=orthogonalEdgeStyle;rounded=0;orthogonalLoop=1;jettySize=auto;html=1;exitX=0.5;exitY=1;exitDx=0;exitDy=0;entryX=0.5;entryY=0;entryDx=0;entryDy=0;" edge="1" parent="1" source="9KyXtA8kVbvXgJRXgj30-93" target="CkKso94nkkBatAv6mMkU-47">
          <mxGeometry relative="1" as="geometry" />
        </mxCell>
        <mxCell id="9KyXtA8kVbvXgJRXgj30-93" value="Menu Admin&lt;div&gt;1. Lihat Semua Pendaftaran&lt;/div&gt;&lt;div&gt;2. Keluar&lt;/div&gt;" style="rhombus;whiteSpace=wrap;html=1;" parent="1" vertex="1">
          <mxGeometry x="1320" y="975" width="120" height="125" as="geometry" />
        </mxCell>
        <mxCell id="9KyXtA8kVbvXgJRXgj30-102" style="edgeStyle=orthogonalEdgeStyle;rounded=0;orthogonalLoop=1;jettySize=auto;html=1;exitX=1;exitY=0.5;exitDx=0;exitDy=0;entryX=0;entryY=0.5;entryDx=0;entryDy=0;" parent="1" source="9KyXtA8kVbvXgJRXgj30-97" target="9KyXtA8kVbvXgJRXgj30-101" edge="1">
          <mxGeometry relative="1" as="geometry" />
        </mxCell>
        <mxCell id="9KyXtA8kVbvXgJRXgj30-97" value="Lihat Semua Pendaftaran" style="rounded=1;whiteSpace=wrap;html=1;" parent="1" vertex="1">
          <mxGeometry x="1490" y="1155" width="120" height="60" as="geometry" />
        </mxCell>
        <mxCell id="9KyXtA8kVbvXgJRXgj30-111" style="edgeStyle=orthogonalEdgeStyle;rounded=0;orthogonalLoop=1;jettySize=auto;html=1;exitX=1;exitY=0.5;exitDx=0;exitDy=0;entryX=0;entryY=0.5;entryDx=0;entryDy=0;" parent="1" source="9KyXtA8kVbvXgJRXgj30-101" target="9KyXtA8kVbvXgJRXgj30-110" edge="1">
          <mxGeometry relative="1" as="geometry" />
        </mxCell>
        <mxCell id="CkKso94nkkBatAv6mMkU-57" value="True" style="edgeLabel;html=1;align=center;verticalAlign=middle;resizable=0;points=[];" vertex="1" connectable="0" parent="9KyXtA8kVbvXgJRXgj30-111">
          <mxGeometry x="-0.439" y="-1" relative="1" as="geometry">
            <mxPoint as="offset" />
          </mxGeometry>
        </mxCell>
        <mxCell id="CkKso94nkkBatAv6mMkU-56" style="edgeStyle=orthogonalEdgeStyle;rounded=0;orthogonalLoop=1;jettySize=auto;html=1;exitX=0.5;exitY=1;exitDx=0;exitDy=0;entryX=0.5;entryY=0;entryDx=0;entryDy=0;" edge="1" parent="1" source="9KyXtA8kVbvXgJRXgj30-101" target="9KyXtA8kVbvXgJRXgj30-103">
          <mxGeometry relative="1" as="geometry" />
        </mxCell>
        <mxCell id="CkKso94nkkBatAv6mMkU-58" value="False" style="edgeLabel;html=1;align=center;verticalAlign=middle;resizable=0;points=[];" vertex="1" connectable="0" parent="CkKso94nkkBatAv6mMkU-56">
          <mxGeometry x="-0.3613" relative="1" as="geometry">
            <mxPoint y="-1" as="offset" />
          </mxGeometry>
        </mxCell>
        <mxCell id="9KyXtA8kVbvXgJRXgj30-101" value="Ada&amp;nbsp;&lt;div&gt;Pengguna&lt;div&gt;&amp;nbsp;yang&lt;div&gt;terdaftar&lt;/div&gt;&lt;/div&gt;&lt;/div&gt;" style="rhombus;whiteSpace=wrap;html=1;" parent="1" vertex="1">
          <mxGeometry x="1655" y="1135" width="110" height="100" as="geometry" />
        </mxCell>
        <mxCell id="CkKso94nkkBatAv6mMkU-170" style="edgeStyle=orthogonalEdgeStyle;rounded=0;orthogonalLoop=1;jettySize=auto;html=1;exitX=1;exitY=0.5;exitDx=0;exitDy=0;entryX=1;entryY=0.5;entryDx=0;entryDy=0;" edge="1" parent="1" source="9KyXtA8kVbvXgJRXgj30-103" target="9KyXtA8kVbvXgJRXgj30-23">
          <mxGeometry relative="1" as="geometry">
            <Array as="points">
              <mxPoint x="2000" y="1315" />
              <mxPoint x="2000" y="880" />
            </Array>
          </mxGeometry>
        </mxCell>
        <mxCell id="9KyXtA8kVbvXgJRXgj30-103" value="Output&lt;div&gt;Belum ada Pengguna yang mendaftar lomba&lt;/div&gt;" style="shape=parallelogram;perimeter=parallelogramPerimeter;whiteSpace=wrap;html=1;fixedSize=1;" parent="1" vertex="1">
          <mxGeometry x="1620" y="1280" width="180" height="70" as="geometry" />
        </mxCell>
        <mxCell id="CkKso94nkkBatAv6mMkU-171" style="edgeStyle=orthogonalEdgeStyle;rounded=0;orthogonalLoop=1;jettySize=auto;html=1;exitX=1;exitY=0.5;exitDx=0;exitDy=0;entryX=1;entryY=0.5;entryDx=0;entryDy=0;" edge="1" parent="1" source="9KyXtA8kVbvXgJRXgj30-110" target="9KyXtA8kVbvXgJRXgj30-23">
          <mxGeometry relative="1" as="geometry">
            <mxPoint x="1610" y="950" as="targetPoint" />
            <Array as="points">
              <mxPoint x="2000" y="1185" />
              <mxPoint x="2000" y="880" />
            </Array>
          </mxGeometry>
        </mxCell>
        <mxCell id="9KyXtA8kVbvXgJRXgj30-110" value="Output&lt;div&gt;Semua data pengguna&lt;/div&gt;&lt;div&gt;&amp;nbsp;yang mendaftar lomba&lt;/div&gt;" style="shape=parallelogram;perimeter=parallelogramPerimeter;whiteSpace=wrap;html=1;fixedSize=1;" parent="1" vertex="1">
          <mxGeometry x="1810" y="1155" width="170" height="60" as="geometry" />
        </mxCell>
        <mxCell id="CkKso94nkkBatAv6mMkU-8" value="" edge="1" parent="1" source="w4_4VS9lS9OvYf16ls5K-4" target="CkKso94nkkBatAv6mMkU-7">
          <mxGeometry relative="1" as="geometry">
            <mxPoint x="112" y="339" as="sourcePoint" />
            <mxPoint x="114" y="440" as="targetPoint" />
          </mxGeometry>
        </mxCell>
        <mxCell id="CkKso94nkkBatAv6mMkU-7" value="Input&lt;div&gt;Pilih menu utama&lt;/div&gt;" style="shape=parallelogram;perimeter=parallelogramPerimeter;whiteSpace=wrap;html=1;fixedSize=1;" vertex="1" parent="1">
          <mxGeometry x="55" y="360" width="120" height="60" as="geometry" />
        </mxCell>
        <mxCell id="CkKso94nkkBatAv6mMkU-15" style="edgeStyle=orthogonalEdgeStyle;rounded=0;orthogonalLoop=1;jettySize=auto;html=1;exitX=0.5;exitY=1;exitDx=0;exitDy=0;entryX=0.5;entryY=0;entryDx=0;entryDy=0;" edge="1" parent="1" source="CkKso94nkkBatAv6mMkU-9" target="CkKso94nkkBatAv6mMkU-12">
          <mxGeometry relative="1" as="geometry" />
        </mxCell>
        <mxCell id="CkKso94nkkBatAv6mMkU-18" value="False" style="edgeLabel;html=1;align=center;verticalAlign=middle;resizable=0;points=[];" vertex="1" connectable="0" parent="CkKso94nkkBatAv6mMkU-15">
          <mxGeometry x="-0.0882" y="1" relative="1" as="geometry">
            <mxPoint as="offset" />
          </mxGeometry>
        </mxCell>
        <mxCell id="CkKso94nkkBatAv6mMkU-23" style="edgeStyle=orthogonalEdgeStyle;rounded=0;orthogonalLoop=1;jettySize=auto;html=1;exitX=1;exitY=0.5;exitDx=0;exitDy=0;entryX=0;entryY=0.5;entryDx=0;entryDy=0;" edge="1" parent="1" source="CkKso94nkkBatAv6mMkU-9" target="w4_4VS9lS9OvYf16ls5K-6">
          <mxGeometry relative="1" as="geometry" />
        </mxCell>
        <mxCell id="CkKso94nkkBatAv6mMkU-183" value="True" style="edgeLabel;html=1;align=center;verticalAlign=middle;resizable=0;points=[];" vertex="1" connectable="0" parent="CkKso94nkkBatAv6mMkU-23">
          <mxGeometry x="-0.1175" y="3" relative="1" as="geometry">
            <mxPoint as="offset" />
          </mxGeometry>
        </mxCell>
        <mxCell id="CkKso94nkkBatAv6mMkU-9" value="if&lt;div&gt;pilih menu 1&lt;/div&gt;" style="rhombus;whiteSpace=wrap;html=1;" vertex="1" parent="1">
          <mxGeometry x="75" y="450" width="80" height="80" as="geometry" />
        </mxCell>
        <mxCell id="CkKso94nkkBatAv6mMkU-16" style="edgeStyle=orthogonalEdgeStyle;rounded=0;orthogonalLoop=1;jettySize=auto;html=1;exitX=0.5;exitY=1;exitDx=0;exitDy=0;entryX=0.5;entryY=0;entryDx=0;entryDy=0;" edge="1" parent="1" source="CkKso94nkkBatAv6mMkU-12" target="CkKso94nkkBatAv6mMkU-13">
          <mxGeometry relative="1" as="geometry" />
        </mxCell>
        <mxCell id="CkKso94nkkBatAv6mMkU-19" value="False" style="edgeLabel;html=1;align=center;verticalAlign=middle;resizable=0;points=[];" vertex="1" connectable="0" parent="CkKso94nkkBatAv6mMkU-16">
          <mxGeometry x="-0.2217" y="-1" relative="1" as="geometry">
            <mxPoint as="offset" />
          </mxGeometry>
        </mxCell>
        <mxCell id="CkKso94nkkBatAv6mMkU-21" style="edgeStyle=orthogonalEdgeStyle;rounded=0;orthogonalLoop=1;jettySize=auto;html=1;exitX=1;exitY=0.5;exitDx=0;exitDy=0;entryX=0;entryY=0.5;entryDx=0;entryDy=0;" edge="1" parent="1" source="CkKso94nkkBatAv6mMkU-12" target="w4_4VS9lS9OvYf16ls5K-7">
          <mxGeometry relative="1" as="geometry" />
        </mxCell>
        <mxCell id="CkKso94nkkBatAv6mMkU-184" value="True" style="edgeLabel;html=1;align=center;verticalAlign=middle;resizable=0;points=[];" vertex="1" connectable="0" parent="CkKso94nkkBatAv6mMkU-21">
          <mxGeometry x="-0.181" y="-3" relative="1" as="geometry">
            <mxPoint as="offset" />
          </mxGeometry>
        </mxCell>
        <mxCell id="CkKso94nkkBatAv6mMkU-17" style="edgeStyle=orthogonalEdgeStyle;rounded=0;orthogonalLoop=1;jettySize=auto;html=1;exitX=0.5;exitY=1;exitDx=0;exitDy=0;entryX=0.5;entryY=0;entryDx=0;entryDy=0;" edge="1" parent="1" source="CkKso94nkkBatAv6mMkU-13" target="CkKso94nkkBatAv6mMkU-14">
          <mxGeometry relative="1" as="geometry" />
        </mxCell>
        <mxCell id="CkKso94nkkBatAv6mMkU-20" value="False" style="edgeLabel;html=1;align=center;verticalAlign=middle;resizable=0;points=[];" vertex="1" connectable="0" parent="CkKso94nkkBatAv6mMkU-17">
          <mxGeometry x="0.123" y="-2" relative="1" as="geometry">
            <mxPoint as="offset" />
          </mxGeometry>
        </mxCell>
        <mxCell id="CkKso94nkkBatAv6mMkU-22" style="edgeStyle=orthogonalEdgeStyle;rounded=0;orthogonalLoop=1;jettySize=auto;html=1;exitX=1;exitY=0.5;exitDx=0;exitDy=0;entryX=0;entryY=0.5;entryDx=0;entryDy=0;" edge="1" parent="1" source="CkKso94nkkBatAv6mMkU-13" target="w4_4VS9lS9OvYf16ls5K-8">
          <mxGeometry relative="1" as="geometry" />
        </mxCell>
        <mxCell id="CkKso94nkkBatAv6mMkU-185" value="True" style="edgeLabel;html=1;align=center;verticalAlign=middle;resizable=0;points=[];" vertex="1" connectable="0" parent="CkKso94nkkBatAv6mMkU-22">
          <mxGeometry x="-0.021" y="-1" relative="1" as="geometry">
            <mxPoint as="offset" />
          </mxGeometry>
        </mxCell>
        <mxCell id="CkKso94nkkBatAv6mMkU-13" value="elif&amp;nbsp;&lt;div&gt;pilih menu 3&lt;/div&gt;" style="rhombus;whiteSpace=wrap;html=1;" vertex="1" parent="1">
          <mxGeometry x="75" y="946.25" width="80" height="80" as="geometry" />
        </mxCell>
        <mxCell id="CkKso94nkkBatAv6mMkU-174" style="edgeStyle=orthogonalEdgeStyle;rounded=0;orthogonalLoop=1;jettySize=auto;html=1;exitX=1;exitY=0.5;exitDx=0;exitDy=0;entryX=0;entryY=0.5;entryDx=0;entryDy=0;" edge="1" parent="1" source="CkKso94nkkBatAv6mMkU-14" target="CkKso94nkkBatAv6mMkU-173">
          <mxGeometry relative="1" as="geometry" />
        </mxCell>
        <mxCell id="CkKso94nkkBatAv6mMkU-14" value="else" style="rhombus;whiteSpace=wrap;html=1;" vertex="1" parent="1">
          <mxGeometry x="75" y="1170" width="80" height="80" as="geometry" />
        </mxCell>
        <mxCell id="CkKso94nkkBatAv6mMkU-41" value="" style="edgeStyle=orthogonalEdgeStyle;rounded=0;orthogonalLoop=1;jettySize=auto;html=1;" edge="1" parent="1" source="CkKso94nkkBatAv6mMkU-34" target="CkKso94nkkBatAv6mMkU-40">
          <mxGeometry relative="1" as="geometry" />
        </mxCell>
        <mxCell id="CkKso94nkkBatAv6mMkU-34" value="Input&lt;div&gt;Username &amp;amp; Password&lt;/div&gt;" style="shape=parallelogram;perimeter=parallelogramPerimeter;whiteSpace=wrap;html=1;fixedSize=1;" vertex="1" parent="1">
          <mxGeometry x="770" y="690" width="120" height="60" as="geometry" />
        </mxCell>
        <mxCell id="CkKso94nkkBatAv6mMkU-12" value="elif&lt;div&gt;pilih menu 2&lt;/div&gt;" style="rhombus;whiteSpace=wrap;html=1;" vertex="1" parent="1">
          <mxGeometry x="75" y="680" width="80" height="80" as="geometry" />
        </mxCell>
        <mxCell id="CkKso94nkkBatAv6mMkU-42" style="edgeStyle=orthogonalEdgeStyle;rounded=0;orthogonalLoop=1;jettySize=auto;html=1;exitX=1;exitY=0.5;exitDx=0;exitDy=0;entryX=0;entryY=0.5;entryDx=0;entryDy=0;" edge="1" parent="1" source="CkKso94nkkBatAv6mMkU-40" target="w4_4VS9lS9OvYf16ls5K-19">
          <mxGeometry relative="1" as="geometry" />
        </mxCell>
        <mxCell id="CkKso94nkkBatAv6mMkU-186" value="True" style="edgeLabel;html=1;align=center;verticalAlign=middle;resizable=0;points=[];" vertex="1" connectable="0" parent="CkKso94nkkBatAv6mMkU-42">
          <mxGeometry x="-0.0804" y="3" relative="1" as="geometry">
            <mxPoint x="1" as="offset" />
          </mxGeometry>
        </mxCell>
        <mxCell id="CkKso94nkkBatAv6mMkU-178" value="" style="edgeStyle=orthogonalEdgeStyle;rounded=0;orthogonalLoop=1;jettySize=auto;html=1;" edge="1" parent="1" source="CkKso94nkkBatAv6mMkU-40" target="CkKso94nkkBatAv6mMkU-177">
          <mxGeometry relative="1" as="geometry" />
        </mxCell>
        <mxCell id="CkKso94nkkBatAv6mMkU-188" value="False" style="edgeLabel;html=1;align=center;verticalAlign=middle;resizable=0;points=[];" vertex="1" connectable="0" parent="CkKso94nkkBatAv6mMkU-178">
          <mxGeometry x="-0.1401" y="-2" relative="1" as="geometry">
            <mxPoint as="offset" />
          </mxGeometry>
        </mxCell>
        <mxCell id="CkKso94nkkBatAv6mMkU-40" value="Username&lt;div&gt;&amp;nbsp;&amp;amp; password&amp;nbsp;&lt;div&gt;benar&lt;/div&gt;&lt;/div&gt;" style="rhombus;whiteSpace=wrap;html=1;" vertex="1" parent="1">
          <mxGeometry x="970" y="665" width="120" height="110" as="geometry" />
        </mxCell>
        <mxCell id="CkKso94nkkBatAv6mMkU-50" value="" style="edgeStyle=orthogonalEdgeStyle;rounded=0;orthogonalLoop=1;jettySize=auto;html=1;" edge="1" parent="1" source="CkKso94nkkBatAv6mMkU-47" target="CkKso94nkkBatAv6mMkU-49">
          <mxGeometry relative="1" as="geometry" />
        </mxCell>
        <mxCell id="CkKso94nkkBatAv6mMkU-203" value="False" style="edgeLabel;html=1;align=center;verticalAlign=middle;resizable=0;points=[];" vertex="1" connectable="0" parent="CkKso94nkkBatAv6mMkU-50">
          <mxGeometry x="0.0175" y="-2" relative="1" as="geometry">
            <mxPoint as="offset" />
          </mxGeometry>
        </mxCell>
        <mxCell id="CkKso94nkkBatAv6mMkU-53" style="edgeStyle=orthogonalEdgeStyle;rounded=0;orthogonalLoop=1;jettySize=auto;html=1;exitX=1;exitY=0.5;exitDx=0;exitDy=0;entryX=0;entryY=0.5;entryDx=0;entryDy=0;" edge="1" parent="1" source="CkKso94nkkBatAv6mMkU-47" target="9KyXtA8kVbvXgJRXgj30-97">
          <mxGeometry relative="1" as="geometry" />
        </mxCell>
        <mxCell id="CkKso94nkkBatAv6mMkU-202" value="True" style="edgeLabel;html=1;align=center;verticalAlign=middle;resizable=0;points=[];" vertex="1" connectable="0" parent="CkKso94nkkBatAv6mMkU-53">
          <mxGeometry x="-0.1479" y="-2" relative="1" as="geometry">
            <mxPoint as="offset" />
          </mxGeometry>
        </mxCell>
        <mxCell id="CkKso94nkkBatAv6mMkU-47" value="if&lt;div&gt;pilih menu admin 1&lt;/div&gt;" style="rhombus;whiteSpace=wrap;html=1;" vertex="1" parent="1">
          <mxGeometry x="1340" y="1145" width="80" height="80" as="geometry" />
        </mxCell>
        <mxCell id="CkKso94nkkBatAv6mMkU-52" value="" style="edgeStyle=orthogonalEdgeStyle;rounded=0;orthogonalLoop=1;jettySize=auto;html=1;" edge="1" parent="1" source="CkKso94nkkBatAv6mMkU-49" target="CkKso94nkkBatAv6mMkU-51">
          <mxGeometry relative="1" as="geometry" />
        </mxCell>
        <mxCell id="CkKso94nkkBatAv6mMkU-204" value="False" style="edgeLabel;html=1;align=center;verticalAlign=middle;resizable=0;points=[];" vertex="1" connectable="0" parent="CkKso94nkkBatAv6mMkU-52">
          <mxGeometry x="-0.1353" relative="1" as="geometry">
            <mxPoint as="offset" />
          </mxGeometry>
        </mxCell>
        <mxCell id="CkKso94nkkBatAv6mMkU-162" value="" style="edgeStyle=orthogonalEdgeStyle;rounded=0;orthogonalLoop=1;jettySize=auto;html=1;" edge="1" parent="1" source="CkKso94nkkBatAv6mMkU-49" target="CkKso94nkkBatAv6mMkU-161">
          <mxGeometry relative="1" as="geometry" />
        </mxCell>
        <mxCell id="CkKso94nkkBatAv6mMkU-205" value="True" style="edgeLabel;html=1;align=center;verticalAlign=middle;resizable=0;points=[];" vertex="1" connectable="0" parent="CkKso94nkkBatAv6mMkU-162">
          <mxGeometry x="-0.2412" y="1" relative="1" as="geometry">
            <mxPoint as="offset" />
          </mxGeometry>
        </mxCell>
        <mxCell id="CkKso94nkkBatAv6mMkU-49" value="elif&amp;nbsp;&lt;div&gt;pilih menu admin 2&lt;/div&gt;" style="rhombus;whiteSpace=wrap;html=1;" vertex="1" parent="1">
          <mxGeometry x="1340" y="1410" width="80" height="80" as="geometry" />
        </mxCell>
        <mxCell id="CkKso94nkkBatAv6mMkU-164" value="" style="edgeStyle=orthogonalEdgeStyle;rounded=0;orthogonalLoop=1;jettySize=auto;html=1;" edge="1" parent="1" source="CkKso94nkkBatAv6mMkU-51" target="CkKso94nkkBatAv6mMkU-163">
          <mxGeometry relative="1" as="geometry" />
        </mxCell>
        <mxCell id="CkKso94nkkBatAv6mMkU-51" value="else" style="rhombus;whiteSpace=wrap;html=1;" vertex="1" parent="1">
          <mxGeometry x="1340" y="1590" width="80" height="80" as="geometry" />
        </mxCell>
        <mxCell id="CkKso94nkkBatAv6mMkU-64" value="" style="edgeStyle=orthogonalEdgeStyle;rounded=0;orthogonalLoop=1;jettySize=auto;html=1;" edge="1" parent="1" source="CkKso94nkkBatAv6mMkU-61" target="CkKso94nkkBatAv6mMkU-63">
          <mxGeometry relative="1" as="geometry" />
        </mxCell>
        <mxCell id="CkKso94nkkBatAv6mMkU-193" value="False" style="edgeLabel;html=1;align=center;verticalAlign=middle;resizable=0;points=[];" vertex="1" connectable="0" parent="CkKso94nkkBatAv6mMkU-64">
          <mxGeometry x="-0.0782" y="1" relative="1" as="geometry">
            <mxPoint as="offset" />
          </mxGeometry>
        </mxCell>
        <mxCell id="CkKso94nkkBatAv6mMkU-80" style="edgeStyle=orthogonalEdgeStyle;rounded=0;orthogonalLoop=1;jettySize=auto;html=1;exitX=1;exitY=0.5;exitDx=0;exitDy=0;entryX=0;entryY=0.5;entryDx=0;entryDy=0;" edge="1" parent="1" source="CkKso94nkkBatAv6mMkU-61" target="CkKso94nkkBatAv6mMkU-77">
          <mxGeometry relative="1" as="geometry" />
        </mxCell>
        <mxCell id="CkKso94nkkBatAv6mMkU-192" value="True" style="edgeLabel;html=1;align=center;verticalAlign=middle;resizable=0;points=[];" vertex="1" connectable="0" parent="CkKso94nkkBatAv6mMkU-80">
          <mxGeometry x="-0.0034" y="2" relative="1" as="geometry">
            <mxPoint as="offset" />
          </mxGeometry>
        </mxCell>
        <mxCell id="CkKso94nkkBatAv6mMkU-61" value="if&lt;div&gt;pilih menu&amp;nbsp;&lt;/div&gt;&lt;div&gt;pengguna 1&lt;/div&gt;" style="rhombus;whiteSpace=wrap;html=1;" vertex="1" parent="1">
          <mxGeometry x="2030" y="668.75" width="120" height="102.5" as="geometry" />
        </mxCell>
        <mxCell id="CkKso94nkkBatAv6mMkU-66" value="" style="edgeStyle=orthogonalEdgeStyle;rounded=0;orthogonalLoop=1;jettySize=auto;html=1;" edge="1" parent="1" source="CkKso94nkkBatAv6mMkU-63" target="CkKso94nkkBatAv6mMkU-65">
          <mxGeometry relative="1" as="geometry" />
        </mxCell>
        <mxCell id="CkKso94nkkBatAv6mMkU-194" value="False" style="edgeLabel;html=1;align=center;verticalAlign=middle;resizable=0;points=[];" vertex="1" connectable="0" parent="CkKso94nkkBatAv6mMkU-66">
          <mxGeometry x="0.0504" y="-3" relative="1" as="geometry">
            <mxPoint as="offset" />
          </mxGeometry>
        </mxCell>
        <mxCell id="CkKso94nkkBatAv6mMkU-63" value="if&lt;div&gt;pilih menu&amp;nbsp;&lt;/div&gt;&lt;div&gt;pengguna 2&lt;/div&gt;" style="rhombus;whiteSpace=wrap;html=1;" vertex="1" parent="1">
          <mxGeometry x="2035" y="942.5" width="110" height="107.5" as="geometry" />
        </mxCell>
        <mxCell id="CkKso94nkkBatAv6mMkU-68" value="" style="edgeStyle=orthogonalEdgeStyle;rounded=0;orthogonalLoop=1;jettySize=auto;html=1;" edge="1" parent="1" source="CkKso94nkkBatAv6mMkU-65" target="CkKso94nkkBatAv6mMkU-67">
          <mxGeometry relative="1" as="geometry" />
        </mxCell>
        <mxCell id="CkKso94nkkBatAv6mMkU-195" value="False" style="edgeLabel;html=1;align=center;verticalAlign=middle;resizable=0;points=[];" vertex="1" connectable="0" parent="CkKso94nkkBatAv6mMkU-68">
          <mxGeometry x="-0.0001" y="-3" relative="1" as="geometry">
            <mxPoint as="offset" />
          </mxGeometry>
        </mxCell>
        <mxCell id="CkKso94nkkBatAv6mMkU-116" style="edgeStyle=orthogonalEdgeStyle;rounded=0;orthogonalLoop=1;jettySize=auto;html=1;exitX=1;exitY=0.5;exitDx=0;exitDy=0;entryX=0;entryY=0.5;entryDx=0;entryDy=0;" edge="1" parent="1" source="CkKso94nkkBatAv6mMkU-65" target="CkKso94nkkBatAv6mMkU-112">
          <mxGeometry relative="1" as="geometry" />
        </mxCell>
        <mxCell id="CkKso94nkkBatAv6mMkU-200" value="True" style="edgeLabel;html=1;align=center;verticalAlign=middle;resizable=0;points=[];" vertex="1" connectable="0" parent="CkKso94nkkBatAv6mMkU-116">
          <mxGeometry x="-0.1561" y="-2" relative="1" as="geometry">
            <mxPoint as="offset" />
          </mxGeometry>
        </mxCell>
        <mxCell id="CkKso94nkkBatAv6mMkU-65" value="if&lt;div&gt;pilih menu&amp;nbsp;&lt;/div&gt;&lt;div&gt;pengguna 3&lt;/div&gt;" style="rhombus;whiteSpace=wrap;html=1;" vertex="1" parent="1">
          <mxGeometry x="2035" y="1182.5" width="110" height="107.5" as="geometry" />
        </mxCell>
        <mxCell id="CkKso94nkkBatAv6mMkU-70" value="" style="edgeStyle=orthogonalEdgeStyle;rounded=0;orthogonalLoop=1;jettySize=auto;html=1;" edge="1" parent="1" source="CkKso94nkkBatAv6mMkU-67" target="CkKso94nkkBatAv6mMkU-69">
          <mxGeometry relative="1" as="geometry" />
        </mxCell>
        <mxCell id="CkKso94nkkBatAv6mMkU-196" value="False" style="edgeLabel;html=1;align=center;verticalAlign=middle;resizable=0;points=[];" vertex="1" connectable="0" parent="CkKso94nkkBatAv6mMkU-70">
          <mxGeometry x="0.0269" y="-2" relative="1" as="geometry">
            <mxPoint y="1" as="offset" />
          </mxGeometry>
        </mxCell>
        <mxCell id="CkKso94nkkBatAv6mMkU-129" style="edgeStyle=orthogonalEdgeStyle;rounded=0;orthogonalLoop=1;jettySize=auto;html=1;exitX=1;exitY=0.5;exitDx=0;exitDy=0;entryX=0;entryY=0.5;entryDx=0;entryDy=0;" edge="1" parent="1" source="CkKso94nkkBatAv6mMkU-67" target="CkKso94nkkBatAv6mMkU-125">
          <mxGeometry relative="1" as="geometry" />
        </mxCell>
        <mxCell id="CkKso94nkkBatAv6mMkU-199" value="True" style="edgeLabel;html=1;align=center;verticalAlign=middle;resizable=0;points=[];" vertex="1" connectable="0" parent="CkKso94nkkBatAv6mMkU-129">
          <mxGeometry x="-0.062" y="1" relative="1" as="geometry">
            <mxPoint as="offset" />
          </mxGeometry>
        </mxCell>
        <mxCell id="CkKso94nkkBatAv6mMkU-67" value="if&lt;div&gt;pilih menu&amp;nbsp;&lt;/div&gt;&lt;div&gt;pengguna 4&lt;/div&gt;" style="rhombus;whiteSpace=wrap;html=1;" vertex="1" parent="1">
          <mxGeometry x="2035" y="1436.25" width="110" height="107.5" as="geometry" />
        </mxCell>
        <mxCell id="CkKso94nkkBatAv6mMkU-73" value="" style="edgeStyle=orthogonalEdgeStyle;rounded=0;orthogonalLoop=1;jettySize=auto;html=1;" edge="1" parent="1" source="CkKso94nkkBatAv6mMkU-69" target="CkKso94nkkBatAv6mMkU-72">
          <mxGeometry relative="1" as="geometry" />
        </mxCell>
        <mxCell id="CkKso94nkkBatAv6mMkU-197" value="False" style="edgeLabel;html=1;align=center;verticalAlign=middle;resizable=0;points=[];" vertex="1" connectable="0" parent="CkKso94nkkBatAv6mMkU-73">
          <mxGeometry x="0.0118" y="2" relative="1" as="geometry">
            <mxPoint as="offset" />
          </mxGeometry>
        </mxCell>
        <mxCell id="CkKso94nkkBatAv6mMkU-141" style="edgeStyle=orthogonalEdgeStyle;rounded=0;orthogonalLoop=1;jettySize=auto;html=1;exitX=1;exitY=0.5;exitDx=0;exitDy=0;entryX=0;entryY=0.5;entryDx=0;entryDy=0;" edge="1" parent="1" source="CkKso94nkkBatAv6mMkU-69" target="CkKso94nkkBatAv6mMkU-140">
          <mxGeometry relative="1" as="geometry" />
        </mxCell>
        <mxCell id="CkKso94nkkBatAv6mMkU-198" value="True" style="edgeLabel;html=1;align=center;verticalAlign=middle;resizable=0;points=[];" vertex="1" connectable="0" parent="CkKso94nkkBatAv6mMkU-141">
          <mxGeometry x="-0.0306" y="1" relative="1" as="geometry">
            <mxPoint as="offset" />
          </mxGeometry>
        </mxCell>
        <mxCell id="CkKso94nkkBatAv6mMkU-69" value="if&lt;div&gt;pilih menu&amp;nbsp;&lt;/div&gt;&lt;div&gt;pengguna 5&lt;/div&gt;" style="rhombus;whiteSpace=wrap;html=1;" vertex="1" parent="1">
          <mxGeometry x="2035" y="1680" width="110" height="107.5" as="geometry" />
        </mxCell>
        <mxCell id="CkKso94nkkBatAv6mMkU-150" value="" style="edgeStyle=orthogonalEdgeStyle;rounded=0;orthogonalLoop=1;jettySize=auto;html=1;" edge="1" parent="1" source="CkKso94nkkBatAv6mMkU-72" target="CkKso94nkkBatAv6mMkU-149">
          <mxGeometry relative="1" as="geometry" />
        </mxCell>
        <mxCell id="CkKso94nkkBatAv6mMkU-72" value="else" style="rhombus;whiteSpace=wrap;html=1;" vertex="1" parent="1">
          <mxGeometry x="2052.5" y="1930" width="75" height="58.75" as="geometry" />
        </mxCell>
        <mxCell id="CkKso94nkkBatAv6mMkU-88" style="edgeStyle=orthogonalEdgeStyle;rounded=0;orthogonalLoop=1;jettySize=auto;html=1;exitX=1;exitY=0.5;exitDx=0;exitDy=0;entryX=0;entryY=0.5;entryDx=0;entryDy=0;" edge="1" parent="1" source="CkKso94nkkBatAv6mMkU-77" target="CkKso94nkkBatAv6mMkU-87">
          <mxGeometry relative="1" as="geometry" />
        </mxCell>
        <mxCell id="CkKso94nkkBatAv6mMkU-77" value="Daftar Marathon" style="rounded=1;whiteSpace=wrap;html=1;" vertex="1" parent="1">
          <mxGeometry x="2220" y="690" width="120" height="60" as="geometry" />
        </mxCell>
        <mxCell id="CkKso94nkkBatAv6mMkU-83" value="" style="edgeStyle=orthogonalEdgeStyle;rounded=0;orthogonalLoop=1;jettySize=auto;html=1;entryX=0;entryY=0.5;entryDx=0;entryDy=0;" edge="1" parent="1" source="CkKso94nkkBatAv6mMkU-78" target="CkKso94nkkBatAv6mMkU-79">
          <mxGeometry relative="1" as="geometry">
            <mxPoint x="2620" y="720" as="targetPoint" />
          </mxGeometry>
        </mxCell>
        <mxCell id="CkKso94nkkBatAv6mMkU-78" value="Input Nama,&lt;div&gt;Nama Lomba, Kategori Lomba&lt;/div&gt;" style="shape=parallelogram;perimeter=parallelogramPerimeter;whiteSpace=wrap;html=1;fixedSize=1;" vertex="1" parent="1">
          <mxGeometry x="2365" y="805" width="150" height="70" as="geometry" />
        </mxCell>
        <mxCell id="CkKso94nkkBatAv6mMkU-151" style="edgeStyle=orthogonalEdgeStyle;rounded=0;orthogonalLoop=1;jettySize=auto;html=1;exitX=1;exitY=0.5;exitDx=0;exitDy=0;entryX=0;entryY=0.5;entryDx=0;entryDy=0;" edge="1" parent="1" source="CkKso94nkkBatAv6mMkU-79" target="CkKso94nkkBatAv6mMkU-145">
          <mxGeometry relative="1" as="geometry">
            <Array as="points">
              <mxPoint x="2800" y="840" />
              <mxPoint x="2800" y="1236" />
            </Array>
          </mxGeometry>
        </mxCell>
        <mxCell id="CkKso94nkkBatAv6mMkU-79" value="Pendaftaran Berhasil" style="rounded=1;whiteSpace=wrap;html=1;" vertex="1" parent="1">
          <mxGeometry x="2540" y="810" width="120" height="60" as="geometry" />
        </mxCell>
        <mxCell id="CkKso94nkkBatAv6mMkU-90" value="" style="edgeStyle=orthogonalEdgeStyle;rounded=0;orthogonalLoop=1;jettySize=auto;html=1;entryX=0.5;entryY=0;entryDx=0;entryDy=0;" edge="1" parent="1" source="CkKso94nkkBatAv6mMkU-87" target="CkKso94nkkBatAv6mMkU-78">
          <mxGeometry relative="1" as="geometry" />
        </mxCell>
        <mxCell id="CkKso94nkkBatAv6mMkU-94" value="False" style="edgeLabel;html=1;align=center;verticalAlign=middle;resizable=0;points=[];" vertex="1" connectable="0" parent="CkKso94nkkBatAv6mMkU-90">
          <mxGeometry x="-0.6264" y="2" relative="1" as="geometry">
            <mxPoint as="offset" />
          </mxGeometry>
        </mxCell>
        <mxCell id="CkKso94nkkBatAv6mMkU-92" style="edgeStyle=orthogonalEdgeStyle;rounded=0;orthogonalLoop=1;jettySize=auto;html=1;exitX=1;exitY=0.5;exitDx=0;exitDy=0;entryX=0;entryY=0.5;entryDx=0;entryDy=0;" edge="1" parent="1" source="CkKso94nkkBatAv6mMkU-87" target="CkKso94nkkBatAv6mMkU-89">
          <mxGeometry relative="1" as="geometry" />
        </mxCell>
        <mxCell id="CkKso94nkkBatAv6mMkU-93" value="True" style="edgeLabel;html=1;align=center;verticalAlign=middle;resizable=0;points=[];" vertex="1" connectable="0" parent="CkKso94nkkBatAv6mMkU-92">
          <mxGeometry x="0.3029" y="3" relative="1" as="geometry">
            <mxPoint as="offset" />
          </mxGeometry>
        </mxCell>
        <mxCell id="CkKso94nkkBatAv6mMkU-87" value="if&lt;div&gt;pengguna telah mendaftar lomba&lt;/div&gt;" style="rhombus;whiteSpace=wrap;html=1;" vertex="1" parent="1">
          <mxGeometry x="2370" y="660" width="140" height="120" as="geometry" />
        </mxCell>
        <mxCell id="CkKso94nkkBatAv6mMkU-147" style="edgeStyle=orthogonalEdgeStyle;rounded=0;orthogonalLoop=1;jettySize=auto;html=1;exitX=1;exitY=0.5;exitDx=0;exitDy=0;entryX=0;entryY=0.5;entryDx=0;entryDy=0;" edge="1" parent="1" source="CkKso94nkkBatAv6mMkU-89" target="CkKso94nkkBatAv6mMkU-145">
          <mxGeometry relative="1" as="geometry">
            <Array as="points">
              <mxPoint x="2800" y="720" />
              <mxPoint x="2800" y="1236" />
            </Array>
          </mxGeometry>
        </mxCell>
        <mxCell id="CkKso94nkkBatAv6mMkU-89" value="Output&lt;div&gt;Anda hanya bisa mendaftar 1 lomba&lt;/div&gt;" style="shape=parallelogram;perimeter=parallelogramPerimeter;whiteSpace=wrap;html=1;fixedSize=1;" vertex="1" parent="1">
          <mxGeometry x="2540" y="685" width="140" height="70" as="geometry" />
        </mxCell>
        <mxCell id="CkKso94nkkBatAv6mMkU-103" style="edgeStyle=orthogonalEdgeStyle;rounded=0;orthogonalLoop=1;jettySize=auto;html=1;exitX=1;exitY=0.5;exitDx=0;exitDy=0;entryX=0;entryY=0.5;entryDx=0;entryDy=0;" edge="1" parent="1" source="CkKso94nkkBatAv6mMkU-98" target="CkKso94nkkBatAv6mMkU-99">
          <mxGeometry relative="1" as="geometry" />
        </mxCell>
        <mxCell id="CkKso94nkkBatAv6mMkU-98" value="Lihat Pendaftaran" style="rounded=1;whiteSpace=wrap;html=1;" vertex="1" parent="1">
          <mxGeometry x="2220" y="966.25" width="120" height="60" as="geometry" />
        </mxCell>
        <mxCell id="CkKso94nkkBatAv6mMkU-104" style="edgeStyle=orthogonalEdgeStyle;rounded=0;orthogonalLoop=1;jettySize=auto;html=1;exitX=0.5;exitY=1;exitDx=0;exitDy=0;entryX=0.5;entryY=0;entryDx=0;entryDy=0;" edge="1" parent="1" source="CkKso94nkkBatAv6mMkU-99" target="CkKso94nkkBatAv6mMkU-101">
          <mxGeometry relative="1" as="geometry" />
        </mxCell>
        <mxCell id="CkKso94nkkBatAv6mMkU-106" value="False" style="edgeLabel;html=1;align=center;verticalAlign=middle;resizable=0;points=[];" vertex="1" connectable="0" parent="CkKso94nkkBatAv6mMkU-104">
          <mxGeometry x="-0.7084" y="2" relative="1" as="geometry">
            <mxPoint as="offset" />
          </mxGeometry>
        </mxCell>
        <mxCell id="CkKso94nkkBatAv6mMkU-105" style="edgeStyle=orthogonalEdgeStyle;rounded=0;orthogonalLoop=1;jettySize=auto;html=1;exitX=1;exitY=0.5;exitDx=0;exitDy=0;entryX=0;entryY=0.5;entryDx=0;entryDy=0;" edge="1" parent="1" source="CkKso94nkkBatAv6mMkU-99" target="CkKso94nkkBatAv6mMkU-100">
          <mxGeometry relative="1" as="geometry" />
        </mxCell>
        <mxCell id="CkKso94nkkBatAv6mMkU-107" value="True" style="edgeLabel;html=1;align=center;verticalAlign=middle;resizable=0;points=[];" vertex="1" connectable="0" parent="CkKso94nkkBatAv6mMkU-105">
          <mxGeometry x="-0.4095" y="2" relative="1" as="geometry">
            <mxPoint as="offset" />
          </mxGeometry>
        </mxCell>
        <mxCell id="CkKso94nkkBatAv6mMkU-99" value="&lt;div&gt;Pengguna&lt;/div&gt;&lt;div&gt;&amp;nbsp;telah Mendaftar&lt;/div&gt;" style="rhombus;whiteSpace=wrap;html=1;" vertex="1" parent="1">
          <mxGeometry x="2385" y="944.38" width="110" height="103.75" as="geometry" />
        </mxCell>
        <mxCell id="CkKso94nkkBatAv6mMkU-152" style="edgeStyle=orthogonalEdgeStyle;rounded=0;orthogonalLoop=1;jettySize=auto;html=1;exitX=1;exitY=0.5;exitDx=0;exitDy=0;entryX=0;entryY=0.5;entryDx=0;entryDy=0;" edge="1" parent="1" source="CkKso94nkkBatAv6mMkU-100" target="CkKso94nkkBatAv6mMkU-145">
          <mxGeometry relative="1" as="geometry">
            <Array as="points">
              <mxPoint x="2800" y="996" />
              <mxPoint x="2800" y="1236" />
            </Array>
          </mxGeometry>
        </mxCell>
        <mxCell id="CkKso94nkkBatAv6mMkU-100" value="Output&lt;div&gt;Data yang&amp;nbsp;&lt;/div&gt;&lt;div&gt;Terdaftar&lt;/div&gt;" style="shape=parallelogram;perimeter=parallelogramPerimeter;whiteSpace=wrap;html=1;fixedSize=1;" vertex="1" parent="1">
          <mxGeometry x="2540" y="966.25" width="120" height="60" as="geometry" />
        </mxCell>
        <mxCell id="CkKso94nkkBatAv6mMkU-101" value="Output&lt;div&gt;Anda belum&amp;nbsp;&lt;/div&gt;&lt;div&gt;mendaftar Lomba&lt;/div&gt;" style="shape=parallelogram;perimeter=parallelogramPerimeter;whiteSpace=wrap;html=1;fixedSize=1;" vertex="1" parent="1">
          <mxGeometry x="2374.38" y="1075" width="131.25" height="70" as="geometry" />
        </mxCell>
        <mxCell id="CkKso94nkkBatAv6mMkU-102" style="edgeStyle=orthogonalEdgeStyle;rounded=0;orthogonalLoop=1;jettySize=auto;html=1;exitX=1;exitY=0.5;exitDx=0;exitDy=0;entryX=0;entryY=0.5;entryDx=0;entryDy=0;" edge="1" parent="1" source="CkKso94nkkBatAv6mMkU-63" target="CkKso94nkkBatAv6mMkU-98">
          <mxGeometry relative="1" as="geometry">
            <mxPoint x="2330" y="970" as="targetPoint" />
          </mxGeometry>
        </mxCell>
        <mxCell id="CkKso94nkkBatAv6mMkU-201" value="True" style="edgeLabel;html=1;align=center;verticalAlign=middle;resizable=0;points=[];" vertex="1" connectable="0" parent="CkKso94nkkBatAv6mMkU-102">
          <mxGeometry x="0.0008" y="3" relative="1" as="geometry">
            <mxPoint as="offset" />
          </mxGeometry>
        </mxCell>
        <mxCell id="CkKso94nkkBatAv6mMkU-118" style="edgeStyle=orthogonalEdgeStyle;rounded=0;orthogonalLoop=1;jettySize=auto;html=1;exitX=1;exitY=0.5;exitDx=0;exitDy=0;entryX=0;entryY=0.5;entryDx=0;entryDy=0;" edge="1" parent="1" source="CkKso94nkkBatAv6mMkU-112" target="CkKso94nkkBatAv6mMkU-117">
          <mxGeometry relative="1" as="geometry" />
        </mxCell>
        <mxCell id="CkKso94nkkBatAv6mMkU-112" value="Edit pendaftaran" style="rounded=1;whiteSpace=wrap;html=1;" vertex="1" parent="1">
          <mxGeometry x="2220" y="1206.25" width="120" height="60" as="geometry" />
        </mxCell>
        <mxCell id="CkKso94nkkBatAv6mMkU-154" style="edgeStyle=orthogonalEdgeStyle;rounded=0;orthogonalLoop=1;jettySize=auto;html=1;exitX=1;exitY=0.5;exitDx=0;exitDy=0;entryX=0;entryY=0.5;entryDx=0;entryDy=0;" edge="1" parent="1" source="CkKso94nkkBatAv6mMkU-114" target="CkKso94nkkBatAv6mMkU-145">
          <mxGeometry relative="1" as="geometry">
            <Array as="points">
              <mxPoint x="2800" y="1360" />
              <mxPoint x="2800" y="1236" />
            </Array>
          </mxGeometry>
        </mxCell>
        <mxCell id="CkKso94nkkBatAv6mMkU-114" value="Output&lt;div&gt;Anda belum&amp;nbsp;&lt;/div&gt;&lt;div&gt;mendaftar Lomba&lt;/div&gt;" style="shape=parallelogram;perimeter=parallelogramPerimeter;whiteSpace=wrap;html=1;fixedSize=1;" vertex="1" parent="1">
          <mxGeometry x="2374.38" y="1325" width="131.25" height="70" as="geometry" />
        </mxCell>
        <mxCell id="CkKso94nkkBatAv6mMkU-153" style="edgeStyle=orthogonalEdgeStyle;rounded=0;orthogonalLoop=1;jettySize=auto;html=1;exitX=1;exitY=0.5;exitDx=0;exitDy=0;entryX=0;entryY=0.5;entryDx=0;entryDy=0;" edge="1" parent="1" source="CkKso94nkkBatAv6mMkU-115" target="CkKso94nkkBatAv6mMkU-145">
          <mxGeometry relative="1" as="geometry" />
        </mxCell>
        <mxCell id="CkKso94nkkBatAv6mMkU-115" value="Input Nama,&lt;div&gt;Nama Lomba,&lt;/div&gt;&lt;div&gt;&amp;nbsp;Kategori Lomba&lt;/div&gt;&lt;div&gt;&amp;nbsp;yang baru&lt;/div&gt;" style="shape=parallelogram;perimeter=parallelogramPerimeter;whiteSpace=wrap;html=1;fixedSize=1;" vertex="1" parent="1">
          <mxGeometry x="2530" y="1201.25" width="130" height="70" as="geometry" />
        </mxCell>
        <mxCell id="CkKso94nkkBatAv6mMkU-119" style="edgeStyle=orthogonalEdgeStyle;rounded=0;orthogonalLoop=1;jettySize=auto;html=1;exitX=0.5;exitY=1;exitDx=0;exitDy=0;entryX=0.5;entryY=0;entryDx=0;entryDy=0;" edge="1" parent="1" source="CkKso94nkkBatAv6mMkU-117" target="CkKso94nkkBatAv6mMkU-114">
          <mxGeometry relative="1" as="geometry" />
        </mxCell>
        <mxCell id="CkKso94nkkBatAv6mMkU-138" value="False" style="edgeLabel;html=1;align=center;verticalAlign=middle;resizable=0;points=[];" vertex="1" connectable="0" parent="CkKso94nkkBatAv6mMkU-119">
          <mxGeometry x="-0.1605" y="-2" relative="1" as="geometry">
            <mxPoint as="offset" />
          </mxGeometry>
        </mxCell>
        <mxCell id="CkKso94nkkBatAv6mMkU-120" style="edgeStyle=orthogonalEdgeStyle;rounded=0;orthogonalLoop=1;jettySize=auto;html=1;exitX=1;exitY=0.5;exitDx=0;exitDy=0;entryX=0;entryY=0.5;entryDx=0;entryDy=0;" edge="1" parent="1" source="CkKso94nkkBatAv6mMkU-117" target="CkKso94nkkBatAv6mMkU-115">
          <mxGeometry relative="1" as="geometry" />
        </mxCell>
        <mxCell id="CkKso94nkkBatAv6mMkU-139" value="True" style="edgeLabel;html=1;align=center;verticalAlign=middle;resizable=0;points=[];" vertex="1" connectable="0" parent="CkKso94nkkBatAv6mMkU-120">
          <mxGeometry x="-0.1222" relative="1" as="geometry">
            <mxPoint x="-3" as="offset" />
          </mxGeometry>
        </mxCell>
        <mxCell id="CkKso94nkkBatAv6mMkU-117" value="&lt;div&gt;Pengguna&lt;/div&gt;&lt;div&gt;&amp;nbsp;telah Mendaftar&lt;/div&gt;" style="rhombus;whiteSpace=wrap;html=1;" vertex="1" parent="1">
          <mxGeometry x="2385.01" y="1184.3700000000001" width="110" height="103.75" as="geometry" />
        </mxCell>
        <mxCell id="CkKso94nkkBatAv6mMkU-131" style="edgeStyle=orthogonalEdgeStyle;rounded=0;orthogonalLoop=1;jettySize=auto;html=1;exitX=1;exitY=0.5;exitDx=0;exitDy=0;entryX=0;entryY=0.5;entryDx=0;entryDy=0;" edge="1" parent="1" source="CkKso94nkkBatAv6mMkU-125" target="CkKso94nkkBatAv6mMkU-130">
          <mxGeometry relative="1" as="geometry" />
        </mxCell>
        <mxCell id="CkKso94nkkBatAv6mMkU-125" value="Batalkanpendaftaran" style="rounded=1;whiteSpace=wrap;html=1;" vertex="1" parent="1">
          <mxGeometry x="2220" y="1460" width="120" height="60" as="geometry" />
        </mxCell>
        <mxCell id="CkKso94nkkBatAv6mMkU-156" style="edgeStyle=orthogonalEdgeStyle;rounded=0;orthogonalLoop=1;jettySize=auto;html=1;exitX=1;exitY=0.5;exitDx=0;exitDy=0;entryX=0;entryY=0.5;entryDx=0;entryDy=0;" edge="1" parent="1" source="CkKso94nkkBatAv6mMkU-127" target="CkKso94nkkBatAv6mMkU-145">
          <mxGeometry relative="1" as="geometry">
            <Array as="points">
              <mxPoint x="2800" y="1605" />
              <mxPoint x="2800" y="1236" />
            </Array>
          </mxGeometry>
        </mxCell>
        <mxCell id="CkKso94nkkBatAv6mMkU-127" value="Output&lt;div&gt;Anda belum&amp;nbsp;&lt;/div&gt;&lt;div&gt;mendaftar Lomba&lt;/div&gt;" style="shape=parallelogram;perimeter=parallelogramPerimeter;whiteSpace=wrap;html=1;fixedSize=1;" vertex="1" parent="1">
          <mxGeometry x="2374.3700000000003" y="1570" width="131.25" height="70" as="geometry" />
        </mxCell>
        <mxCell id="CkKso94nkkBatAv6mMkU-155" style="edgeStyle=orthogonalEdgeStyle;rounded=0;orthogonalLoop=1;jettySize=auto;html=1;exitX=1;exitY=0.5;exitDx=0;exitDy=0;entryX=0;entryY=0.5;entryDx=0;entryDy=0;" edge="1" parent="1" source="CkKso94nkkBatAv6mMkU-128" target="CkKso94nkkBatAv6mMkU-145">
          <mxGeometry relative="1" as="geometry">
            <Array as="points">
              <mxPoint x="2800" y="1490" />
              <mxPoint x="2800" y="1236" />
            </Array>
          </mxGeometry>
        </mxCell>
        <mxCell id="CkKso94nkkBatAv6mMkU-128" value="Pendaftaran Dibatalkan" style="rounded=1;whiteSpace=wrap;html=1;" vertex="1" parent="1">
          <mxGeometry x="2540" y="1460.01" width="120" height="60" as="geometry" />
        </mxCell>
        <mxCell id="CkKso94nkkBatAv6mMkU-132" style="edgeStyle=orthogonalEdgeStyle;rounded=0;orthogonalLoop=1;jettySize=auto;html=1;exitX=0.5;exitY=1;exitDx=0;exitDy=0;entryX=0.5;entryY=0;entryDx=0;entryDy=0;" edge="1" parent="1" source="CkKso94nkkBatAv6mMkU-130" target="CkKso94nkkBatAv6mMkU-127">
          <mxGeometry relative="1" as="geometry" />
        </mxCell>
        <mxCell id="CkKso94nkkBatAv6mMkU-136" value="False" style="edgeLabel;html=1;align=center;verticalAlign=middle;resizable=0;points=[];" vertex="1" connectable="0" parent="CkKso94nkkBatAv6mMkU-132">
          <mxGeometry x="-0.0973" y="-3" relative="1" as="geometry">
            <mxPoint as="offset" />
          </mxGeometry>
        </mxCell>
        <mxCell id="CkKso94nkkBatAv6mMkU-133" style="edgeStyle=orthogonalEdgeStyle;rounded=0;orthogonalLoop=1;jettySize=auto;html=1;exitX=1;exitY=0.5;exitDx=0;exitDy=0;entryX=0;entryY=0.5;entryDx=0;entryDy=0;" edge="1" parent="1" source="CkKso94nkkBatAv6mMkU-130" target="CkKso94nkkBatAv6mMkU-128">
          <mxGeometry relative="1" as="geometry" />
        </mxCell>
        <mxCell id="CkKso94nkkBatAv6mMkU-134" value="True" style="edgeLabel;html=1;align=center;verticalAlign=middle;resizable=0;points=[];" vertex="1" connectable="0" parent="CkKso94nkkBatAv6mMkU-133">
          <mxGeometry x="-0.1647" y="3" relative="1" as="geometry">
            <mxPoint as="offset" />
          </mxGeometry>
        </mxCell>
        <mxCell id="CkKso94nkkBatAv6mMkU-130" value="&lt;div&gt;Pengguna&lt;/div&gt;&lt;div&gt;&amp;nbsp;telah Mendaftar&lt;/div&gt;" style="rhombus;whiteSpace=wrap;html=1;" vertex="1" parent="1">
          <mxGeometry x="2385.01" y="1438.13" width="110" height="103.75" as="geometry" />
        </mxCell>
        <mxCell id="CkKso94nkkBatAv6mMkU-167" value="" style="edgeStyle=orthogonalEdgeStyle;rounded=0;orthogonalLoop=1;jettySize=auto;html=1;" edge="1" parent="1" source="CkKso94nkkBatAv6mMkU-140" target="CkKso94nkkBatAv6mMkU-166">
          <mxGeometry relative="1" as="geometry" />
        </mxCell>
        <mxCell id="CkKso94nkkBatAv6mMkU-140" value="Keluar dari menu pengguna" style="rounded=1;whiteSpace=wrap;html=1;" vertex="1" parent="1">
          <mxGeometry x="2220" y="1703.75" width="120" height="60" as="geometry" />
        </mxCell>
        <mxCell id="CkKso94nkkBatAv6mMkU-159" style="edgeStyle=orthogonalEdgeStyle;rounded=0;orthogonalLoop=1;jettySize=auto;html=1;exitX=1;exitY=0.5;exitDx=0;exitDy=0;entryX=0.5;entryY=0;entryDx=0;entryDy=0;" edge="1" parent="1" source="CkKso94nkkBatAv6mMkU-145" target="9KyXtA8kVbvXgJRXgj30-22">
          <mxGeometry relative="1" as="geometry">
            <Array as="points">
              <mxPoint x="3070" y="1236" />
              <mxPoint x="3070" y="620" />
              <mxPoint x="1600" y="620" />
            </Array>
          </mxGeometry>
        </mxCell>
        <mxCell id="CkKso94nkkBatAv6mMkU-145" value="Kembali ke menu pengguna" style="rounded=1;whiteSpace=wrap;html=1;" vertex="1" parent="1">
          <mxGeometry x="2930" y="1206.24" width="120" height="60" as="geometry" />
        </mxCell>
        <mxCell id="CkKso94nkkBatAv6mMkU-158" style="edgeStyle=orthogonalEdgeStyle;rounded=0;orthogonalLoop=1;jettySize=auto;html=1;exitX=1;exitY=0.5;exitDx=0;exitDy=0;entryX=0;entryY=0.5;entryDx=0;entryDy=0;" edge="1" parent="1" source="CkKso94nkkBatAv6mMkU-149" target="CkKso94nkkBatAv6mMkU-145">
          <mxGeometry relative="1" as="geometry">
            <Array as="points">
              <mxPoint x="2800" y="1959" />
              <mxPoint x="2800" y="1236" />
            </Array>
          </mxGeometry>
        </mxCell>
        <mxCell id="CkKso94nkkBatAv6mMkU-149" value="Output&lt;div&gt;Pilihan Tidak Valid&lt;/div&gt;" style="shape=parallelogram;perimeter=parallelogramPerimeter;whiteSpace=wrap;html=1;fixedSize=1;" vertex="1" parent="1">
          <mxGeometry x="2185" y="1929.38" width="135" height="60" as="geometry" />
        </mxCell>
        <mxCell id="CkKso94nkkBatAv6mMkU-169" value="" style="edgeStyle=orthogonalEdgeStyle;rounded=0;orthogonalLoop=1;jettySize=auto;html=1;" edge="1" parent="1" source="CkKso94nkkBatAv6mMkU-161" target="CkKso94nkkBatAv6mMkU-168">
          <mxGeometry relative="1" as="geometry" />
        </mxCell>
        <mxCell id="CkKso94nkkBatAv6mMkU-161" value="Keluar dari menu admin" style="rounded=1;whiteSpace=wrap;html=1;" vertex="1" parent="1">
          <mxGeometry x="1480" y="1420" width="120" height="60" as="geometry" />
        </mxCell>
        <mxCell id="CkKso94nkkBatAv6mMkU-172" style="edgeStyle=orthogonalEdgeStyle;rounded=0;orthogonalLoop=1;jettySize=auto;html=1;exitX=1;exitY=0.5;exitDx=0;exitDy=0;entryX=1;entryY=0.5;entryDx=0;entryDy=0;" edge="1" parent="1" source="CkKso94nkkBatAv6mMkU-163" target="9KyXtA8kVbvXgJRXgj30-23">
          <mxGeometry relative="1" as="geometry">
            <mxPoint x="1650" y="1000" as="targetPoint" />
            <Array as="points">
              <mxPoint x="2000" y="1630" />
              <mxPoint x="2000" y="880" />
            </Array>
          </mxGeometry>
        </mxCell>
        <mxCell id="CkKso94nkkBatAv6mMkU-163" value="Output&lt;div&gt;Pilihan tidak valid&lt;/div&gt;" style="shape=parallelogram;perimeter=parallelogramPerimeter;whiteSpace=wrap;html=1;fixedSize=1;" vertex="1" parent="1">
          <mxGeometry x="1480" y="1600" width="140" height="60" as="geometry" />
        </mxCell>
        <mxCell id="CkKso94nkkBatAv6mMkU-166" value="Kembali ke menu utama" style="whiteSpace=wrap;html=1;rounded=1;" vertex="1" parent="1">
          <mxGeometry x="2420" y="1703.75" width="120" height="60" as="geometry" />
        </mxCell>
        <mxCell id="CkKso94nkkBatAv6mMkU-168" value="Kembali ke menu utama" style="whiteSpace=wrap;html=1;rounded=1;" vertex="1" parent="1">
          <mxGeometry x="1680" y="1420" width="120" height="60" as="geometry" />
        </mxCell>
        <mxCell id="CkKso94nkkBatAv6mMkU-176" style="edgeStyle=orthogonalEdgeStyle;rounded=0;orthogonalLoop=1;jettySize=auto;html=1;exitX=0.5;exitY=1;exitDx=0;exitDy=0;entryX=0;entryY=0.5;entryDx=0;entryDy=0;" edge="1" parent="1" source="CkKso94nkkBatAv6mMkU-173" target="9KyXtA8kVbvXgJRXgj30-2">
          <mxGeometry relative="1" as="geometry">
            <mxPoint x="40" y="800" as="targetPoint" />
            <Array as="points">
              <mxPoint x="320" y="1280" />
              <mxPoint x="-10" y="1280" />
              <mxPoint x="-10" y="170" />
            </Array>
          </mxGeometry>
        </mxCell>
        <mxCell id="CkKso94nkkBatAv6mMkU-173" value="Output&lt;div&gt;Pilihan tidak valid&lt;/div&gt;" style="shape=parallelogram;perimeter=parallelogramPerimeter;whiteSpace=wrap;html=1;fixedSize=1;" vertex="1" parent="1">
          <mxGeometry x="250" y="1180" width="140" height="60" as="geometry" />
        </mxCell>
        <mxCell id="CkKso94nkkBatAv6mMkU-179" style="edgeStyle=orthogonalEdgeStyle;rounded=0;orthogonalLoop=1;jettySize=auto;html=1;exitX=0.5;exitY=1;exitDx=0;exitDy=0;entryX=0.5;entryY=1;entryDx=0;entryDy=0;" edge="1" parent="1" source="CkKso94nkkBatAv6mMkU-177" target="w4_4VS9lS9OvYf16ls5K-7">
          <mxGeometry relative="1" as="geometry">
            <Array as="points">
              <mxPoint x="1030" y="920" />
              <mxPoint x="380" y="920" />
            </Array>
          </mxGeometry>
        </mxCell>
        <mxCell id="CkKso94nkkBatAv6mMkU-177" value="Output&lt;div&gt;Username/Password&lt;/div&gt;&lt;div&gt;&amp;nbsp;anda salah&lt;/div&gt;" style="shape=parallelogram;perimeter=parallelogramPerimeter;whiteSpace=wrap;html=1;fixedSize=1;" vertex="1" parent="1">
          <mxGeometry x="950" y="830" width="160" height="60" as="geometry" />
        </mxCell>
        <mxCell id="CkKso94nkkBatAv6mMkU-181" value="Kembali ke menu utama" style="rounded=1;whiteSpace=wrap;html=1;" vertex="1" parent="1">
          <mxGeometry x="730" y="825" width="120" height="60" as="geometry" />
        </mxCell>
      </root>
    </mxGraphModel>
  </diagram>
</mxfile>
